<svg data-name="Layer 1" xmlns="http://www.w3.org/2000/svg" width="983.675" height="502.497"><path d="m680.563 442.48-11.451 18.003 6.67-23.437c-14.084-14.696-33.58-25.446-33.58-25.446s-24.008 39.456-17.546 63.727 23.146 28.904 40.945 24.166c17.798-4.739 29.97-17.055 23.51-41.325-1.439-5.403-4.563-10.706-8.548-15.688Z" fill="#f2f2f2"/><path d="m665.412 462.278.318 1.196c3.631 13.925 4.175 25.4 1.607 34.265-.035.13-.078.255-.113.385l-.6-.177-.573-.177c2.91-9.609 1.61-21.751-1.553-33.898-.098-.392-.198-.79-.31-1.186-1.384-5.13-3.081-10.24-4.928-15.152-.14-.382-.286-.768-.434-1.153-2.47-6.471-5.17-12.564-7.672-17.815a70.085 70.085 0 0 0-.536-1.107c-4.27-8.871-7.891-15.157-8.705-16.545-.096-.17-.152-.263-.165-.286l.52-.31.005-.007.526-.311c.012.022.203.333.535.917 1.259 2.176 4.6 8.104 8.453 16.072.172.36.353.73.528 1.103 2.034 4.259 4.191 9.05 6.243 14.136q.776 1.915 1.485 3.79c.153.385.3.77.44 1.152q2.995 7.964 4.929 15.108Z" fill="#fff"/><path d="M651.787 426.99c-.383.158-.772.319-1.17.469a33.81 33.81 0 0 1-3.294 1.06 32.89 32.89 0 0 1-14.566.556c-.165.38-.33.76-.5 1.147a34.107 34.107 0 0 0 15.382-.518 34.984 34.984 0 0 0 3.514-1.138c.392-.149.78-.31 1.162-.474a33.82 33.82 0 0 0 8.685-5.376q-.512-.387-1.002-.76a32.777 32.777 0 0 1-8.211 5.033ZM660.043 446.019q-.604.198-1.217.362a8.418 8.418 0 0 1-.377.106 33.064 33.064 0 0 1-29.872-6.717c-.144.413-.288.825-.424 1.242a34.291 34.291 0 0 0 30.611 6.66c.166-.044.332-.088.496-.139.413-.116.819-.236 1.223-.363a34.11 34.11 0 0 0 15.92-10.834c-.283-.3-.565-.598-.854-.896a32.837 32.837 0 0 1-15.506 10.579Z" fill="#fff"/><path d="M665.412 462.278a34.535 34.535 0 0 1-2.548.792 33.153 33.153 0 0 1-36.85-14.873c-.14.55-.28 1.095-.407 1.643a34.367 34.367 0 0 0 37.572 14.415c.444-.118.887-.243 1.319-.383.417-.124.826-.258 1.232-.398a34.267 34.267 0 0 0 19.015-16.484c-.242-.405-.499-.8-.758-1.2a33.046 33.046 0 0 1-18.575 16.488Z" fill="#fff"/><path d="m621.563 32.48-11.451 18.003 6.67-23.437C602.698 12.35 583.202 1.6 583.202 1.6s-24.008 39.456-17.546 63.727 23.146 28.904 40.945 24.166c17.798-4.739 29.97-17.055 23.51-41.325-1.439-5.403-4.563-10.706-8.548-15.688Z" fill="#f2f2f2"/><path d="m606.412 52.278.318 1.196c3.631 13.925 4.175 25.4 1.607 34.265-.035.13-.078.255-.113.385l-.6-.177-.573-.177c2.91-9.609 1.61-21.751-1.553-33.898-.098-.392-.198-.79-.31-1.186-1.384-5.13-3.081-10.24-4.928-15.152-.14-.382-.286-.768-.434-1.153-2.47-6.471-5.17-12.564-7.672-17.815a70.085 70.085 0 0 0-.536-1.107c-4.27-8.871-7.891-15.157-8.705-16.545-.096-.17-.152-.263-.165-.286l.52-.31.005-.007.526-.311c.012.022.203.333.535.917 1.259 2.176 4.6 8.104 8.453 16.072.172.36.353.73.528 1.103 2.034 4.259 4.191 9.05 6.243 14.136q.776 1.915 1.485 3.79c.153.385.3.77.44 1.152q2.995 7.964 4.929 15.108Z" fill="#fff"/><path d="M592.787 16.99c-.383.158-.772.319-1.17.469a33.81 33.81 0 0 1-3.294 1.06 32.89 32.89 0 0 1-14.566.555l-.5 1.148a34.107 34.107 0 0 0 15.382-.518 34.984 34.984 0 0 0 3.514-1.138c.392-.149.78-.31 1.162-.474A33.82 33.82 0 0 0 602 12.716q-.512-.387-1.002-.76a32.777 32.777 0 0 1-8.211 5.033ZM601.043 36.019q-.604.198-1.217.362a8.418 8.418 0 0 1-.377.106 33.064 33.064 0 0 1-29.872-6.717c-.144.413-.288.825-.424 1.242a34.291 34.291 0 0 0 30.611 6.66c.166-.044.332-.088.496-.139.413-.116.819-.236 1.223-.363a34.11 34.11 0 0 0 15.92-10.834c-.283-.3-.565-.598-.854-.896a32.837 32.837 0 0 1-15.506 10.579Z" fill="#fff"/><path d="M606.412 52.278a34.535 34.535 0 0 1-2.548.792 33.153 33.153 0 0 1-36.85-14.873c-.14.55-.28 1.095-.407 1.643a34.367 34.367 0 0 0 37.572 14.415c.444-.118.887-.243 1.319-.383.417-.124.826-.258 1.232-.398a34.267 34.267 0 0 0 19.015-16.484c-.242-.405-.499-.8-.758-1.2a33.046 33.046 0 0 1-18.575 16.488Z" fill="#fff"/><path d="m306.657 472.7-21.337.097 23.325-7.057c4.751-19.791 3.257-42.005 3.257-42.005s-46.172 1.128-63.099 19.683-11.807 35.097 1.8 47.51c13.607 12.414 30.548 15.998 47.475-2.557 3.768-4.13 6.541-9.625 8.58-15.67Z" fill="#f2f2f2"/><path d="m281.81 470.654-.834.915c-9.753 10.581-19.113 17.24-27.96 19.872-.127.04-.256.072-.384.113l-.175-.6-.161-.578c9.656-2.746 19.17-10.402 27.68-19.629.277-.295.558-.594.83-.901 3.568-3.938 6.95-8.128 10.085-12.337.245-.323.49-.656.735-.988 4.109-5.577 7.775-11.142 10.841-16.085.219-.348.432-.7.642-1.049 5.155-8.388 8.486-14.831 9.214-16.266.092-.173.14-.27.152-.293l.542.27h.008l.546.274c-.012.022-.17.35-.481.946-1.151 2.235-4.333 8.25-8.954 15.799-.21.34-.424.692-.642 1.04a249.896 249.896 0 0 1-8.519 12.894q-1.192 1.688-2.387 3.298c-.24.336-.485.669-.73.992q-5.082 6.825-10.047 12.313Z" fill="#fff"/><path d="M304.136 440.117c-.34-.236-.686-.476-1.027-.73a33.813 33.813 0 0 1-2.673-2.198 32.89 32.89 0 0 1-8.34-11.955l-1.236.2a34.107 34.107 0 0 0 8.75 12.66 34.983 34.983 0 0 0 2.857 2.342c.337.25.682.49 1.027.721a33.82 33.82 0 0 0 9.217 4.401q.048-.64.098-1.254a32.777 32.777 0 0 1-8.673-4.187ZM292.588 457.349q-.493-.4-.962-.828a8.362 8.362 0 0 1-.294-.26 33.064 33.064 0 0 1-10.494-28.763c-.425.102-.85.204-1.274.315a34.291 34.291 0 0 0 10.942 29.354c.127.115.254.231.385.342.32.285.642.56.966.832a34.11 34.11 0 0 0 17.72 7.538c.1-.399.199-.798.293-1.202a32.837 32.837 0 0 1-17.282-7.328Z" fill="#fff"/><path d="M281.81 470.654a34.487 34.487 0 0 1-2.044-1.715 33.153 33.153 0 0 1-7.404-39.043c-.538.18-1.072.357-1.602.546a34.367 34.367 0 0 0 8.18 39.402c.34.31.684.615 1.036.903.33.284.663.555 1 .822a34.267 34.267 0 0 0 24.147 7.087c.21-.422.403-.851.6-1.286a33.046 33.046 0 0 1-23.912-6.716Z" fill="#fff"/><path fill="#ffb6b6" d="m235.821 489.442 12.26-.001 5.832-47.288-18.094.001.002 47.288z"/><path d="m232.694 485.44 24.144-.002h.001a15.387 15.387 0 0 1 15.386 15.386v.5l-39.53.002Z" fill="#2f2e41"/><path fill="#ffb6b6" d="m138.821 489.442 12.26-.001 5.832-47.288-18.094.001.002 47.288z"/><path d="m135.694 485.44 24.144-.002h.001a15.387 15.387 0 0 1 15.386 15.386v.5l-39.53.002ZM159.613 295.2l-8.263 7.605-9.313 91.876-6.269 73.157 18.945 2.555 45.952-124.999L234.288 469.8l22.668.593L241.911 308l-82.298-12.8z" fill="#2f2e41"/><circle cx="199.544" cy="135.809" r="23.536" fill="#ffb9b9"/><path d="M187.499 124.88s-2.806 6.073 8.418 3.644c0 0 4.209 2.43 4.209-1.214 0 0 5.612 6.072 7.015 2.429s4.209 1.214 4.209 1.214l2.806-6.072 2.806 3.643h9.82s2.807-24.29-30.865-21.86-17.107 40.914-17.107 40.914.27-6.909 3.077-3.265 5.612-19.432 5.612-19.432Z" fill="#2f2e41"/><path d="m217.477 167.027-33.189-2.077-29.575 7.845 4.483 76.213-7.846 53.797s43.045 26.312 91.904 5.604l-4.64-12.209s-.16-18.685-4.08-22.342-3.608-33.816-3.608-33.816l14.57-56.04Z" fill="#3f3d56"/><path d="m162.613 175.2-7.9-2.405s-12.304.41-18.702 14.408-10.398 33.997-10.398 33.997l40.634 1.47Z" fill="#3f3d56"/><path d="m256.929 308.806-1.316-82.606-17.555 2.634 3.878 78.263a10.51 10.51 0 1 0 14.993 1.709Z" fill="#ffb9b9"/><path d="m235.613 191.2 9.883-7.197s18.988 14.85 19.053 47.524l-26.49 6.425-14.979-21.543Z" fill="#3f3d56"/><path fill="#9e616a" d="m768.569 489.395 12.26-.001 5.832-47.288-18.094.001.002 47.288z"/><path d="m765.442 485.392 24.144-.001h.001a15.387 15.387 0 0 1 15.386 15.386v.5l-39.53.002Z" fill="#2f2e41"/><path fill="#9e616a" d="m696.005 478.969 11.689 3.698 19.823-43.327-17.251-5.457-14.261 45.086z"/><path d="m694.23 474.21 23.02 7.281h.001a15.387 15.387 0 0 1 10.03 19.31l-.151.478-37.69-11.922ZM723.61 273.425l-6.804 19.188-.193 103.587-19.293 70.923 23.683 6.61 26.161-66.874 8.392-58.739 11.057 59.08-1.522 70.22h24.85l1.875-108.21a237.255 237.255 0 0 0-15.664-88.982Z" fill="#2f2e41"/><path fill="#20c20e" d="M715.507 195.7h40.165l16.782 16.783 5.014 69.371-60.662 9.761-19.486-66.189 10.612-28.131 7.575-1.595z"/><path fill="#20c20e" d="m701.063 226.088-61.84-23.267-1.61-9.618 39-33 12.981 9.736-23.528 25.761 41.866 1.595-6.869 28.793z"/><circle cx="684.113" cy="163.7" r="10" fill="#9e616a"/><path d="m707.305 176.298 4.519-20.376a27.967 27.967 0 0 1 54.608 12.11l-4.519 20.376a3.761 3.761 0 0 1-4.481 2.855l-47.273-10.484a3.761 3.761 0 0 1-2.854-4.48Z" fill="#2f2e41"/><circle cx="732.73" cy="164.284" r="20.505" fill="#9e616a"/><path d="M705.003 156.12a22.148 22.148 0 0 1 26.388-16.81l4.076.905a22.148 22.148 0 0 1 16.808 26.388l-.09.408-8.612-1.91-1.114-8.877-2.411 8.095-4.451-.987-.562-4.479-1.217 4.085-28.906-6.41Z" fill="#2f2e41"/><path d="M725.707 186.631a3.701 3.701 0 0 1 .563-3.9c6.14-7.256 15.553-21.093 9.603-32.233l-.428-.8 23.3 5.166-7.757 34.982-21.995-.96a3.838 3.838 0 0 1-.662-.086 3.742 3.742 0 0 1-2.624-2.169Z" fill="#2f2e41"/><path d="M982.485 502.497H1.19a1.19 1.19 0 0 1 0-2.381h981.294a1.19 1.19 0 0 1 0 2.381Z" fill="#cacaca"/><path d="M495.96 207.72H178.643a18.343 18.343 0 0 0-18.342 18.343v76.315a18.342 18.342 0 0 0 18.342 18.343h4.658v13.787a4.23 4.23 0 0 0 7.22 2.991l16.78-16.778h288.657a18.342 18.342 0 0 0 18.343-18.343v-76.315a18.343 18.343 0 0 0-18.343-18.342Z" fill="#e6e6e6"/><path d="M419.644 311.22h-241a8.853 8.853 0 0 1-8.842-8.842v-76.315a8.852 8.852 0 0 1 8.842-8.842h317.315a8.853 8.853 0 0 1 8.843 8.843 85.253 85.253 0 0 1-85.158 85.156Z" fill="#fff"/><rect x="264.635" y="233.721" width="146" height="12" rx="6" fill="#20c20e"/><rect x="236.135" y="257.721" width="203" height="12" rx="6" fill="#e6e6e6"/><rect x="236.135" y="281.721" width="203" height="12" rx="6" fill="#e6e6e6"/><path d="M948.037 260.857h-229.47a13.265 13.265 0 0 0-13.265 13.265v55.188a13.265 13.265 0 0 0 13.264 13.265h3.368v9.97a3.06 3.06 0 0 0 5.223 2.163l12.133-12.133h208.747a13.265 13.265 0 0 0 13.265-13.265v-55.188a13.265 13.265 0 0 0-13.265-13.265Z" fill="#e6e6e6"/><path d="M948.037 335.843h-229.47a6.54 6.54 0 0 1-6.534-6.533v-55.188a6.54 6.54 0 0 1 6.533-6.534H892.85a61.791 61.791 0 0 1 61.721 61.722 6.54 6.54 0 0 1-6.533 6.533Z" fill="#fff"/><rect x="780.752" y="279.659" width="105.582" height="8.678" rx="4.339" fill="#20c20e"/><rect x="760.142" y="297.015" width="146.802" height="8.678" rx="4.339" fill="#e6e6e6"/><rect x="760.142" y="314.371" width="146.802" height="8.678" rx="4.339" fill="#e6e6e6"/><path d="M458.566 66.857h229.47a13.265 13.265 0 0 1 13.266 13.265v55.188a13.265 13.265 0 0 1-13.265 13.265h-3.368v9.97a3.06 3.06 0 0 1-5.222 2.163l-12.134-12.133H458.566a13.265 13.265 0 0 1-13.264-13.265V80.122a13.265 13.265 0 0 1 13.264-13.265Z" fill="#e6e6e6"/><path d="M688.037 141.843H513.755a61.791 61.791 0 0 1-61.722-61.72 6.54 6.54 0 0 1 6.533-6.535h229.47a6.54 6.54 0 0 1 6.534 6.534v55.188a6.54 6.54 0 0 1-6.533 6.533Z" fill="#fff"/><rect x="628.432" y="284.411" width="105.582" height="8.678" rx="4.339" transform="rotate(180 627.142 189.374)" fill="#20c20e"/><rect x="607.822" y="301.767" width="146.802" height="8.678" rx="4.339" transform="rotate(180 627.142 206.73)" fill="#e6e6e6"/><rect x="607.822" y="319.123" width="146.802" height="8.678" rx="4.339" transform="rotate(180 627.142 224.086)" fill="#e6e6e6"/><path d="M194.113 206.2a10.5 10.5 0 0 0-21 0c0 .103.012.202.015.304l-18.415 18.416 1.4-3.22-21-1-3.063 22.172a9.969 9.969 0 0 0 16.782 8.494l36.3-34.788a10.493 10.493 0 0 0 8.981-10.378Z" fill="#ffb9b9"/><path fill="#20c20e" d="m754.074 196.12 65.414 9.301 3.657 9.04-30.914 40.673-14.783-6.689 17.38-30.251-41.215 7.524.461-29.598z"/><circle cx="783.113" cy="256.7" r="10" fill="#9e616a"/></svg>