<svg data-name="Layer 1" xmlns="http://www.w3.org/2000/svg" width="738.82" height="576.27"><path d="M614.379 248.524s-17.37 9.662-12.37 20.662 76 2 76 2-5-15-14-18-49.63-4.662-49.63-4.662Z" fill="#20c20e"/><path d="M607.607 251.1a33.803 33.803 0 0 1 11.447-4.733 77.516 77.516 0 0 1 41.177 1.284l-.245-.199a45.946 45.946 0 0 1 14.666 12.228ZM684.529 298.405l-.72 10.76a172.674 172.674 0 0 1-2.45 22.38c-1.22 6.19-3.16 12.33-6.63 17.6-3.47 5.26-8.62 9.61-14.72 11.21a26.973 26.973 0 0 1-11.42.25c-7.13-4.05-11.96 1.13-4.84 6.4a55.187 55.187 0 0 0 5.03 3.31l3.23 49.87-60-13 11.71-66.34a39.59 39.59 0 0 1-4.9-5.35c-6.71-8.91-9.02-20.52-8.58-31.66.45-11.15 3.42-22.02 6.37-32.77a84.278 84.278 0 0 1 2.72-8.61c1.31.54 2.64 1.03 3.99 1.44 8.63 2.62 17.8 2.83 26.82 2.82q24.075-.015 48.09-1.88a46.142 46.142 0 0 1 6.53 19.94 92.57 92.57 0 0 1-.23 13.63Z" fill="#ccc"/><path d="m427.91 433.78 92.37 8.2.99.09V47.93l-.99-.69a288.323 288.323 0 0 0-62.01-32.94l-4.72 65.1-.43 5.96-4.67 64.56-1.44 19.86-18.93 261.7ZM199.48 40.59c-.66.42-1.32.84-1.98 1.28v400.2l1.98-.18 91.37-8.11-.17-2.3-18.93-261.7-1.44-19.86-4.67-64.56-.43-5.96-4.95-68.27a287.687 287.687 0 0 0-60.78 29.46Z" fill="#e6e6e6"/><path d="M197.5 41.87c-1.33.86-2.66 1.74-3.97 2.63v403.03c0 10.07 5.97 18.51 13.95 20.66a15.249 15.249 0 0 0 4 .53h296.8a15.118 15.118 0 0 0 3.99-.53 17.06 17.06 0 0 0 7.78-4.66 22.919 22.919 0 0 0 6.18-16V51.51c-1.64-1.21-3.29-2.41-4.96-3.58l-.99-.69v400.29a16.108 16.108 0 0 1-.46 3.85c-1.41 5.95-6.06 10.31-11.54 10.31h-296.8c-6.62 0-12-6.35-12-14.16V40.59c-.66.42-1.32.84-1.98 1.28Z" fill="#e6e6e6"/><path fill="#e6e6e6" d="M196.503 79.404h326.752v5.959H196.503z"/><path d="M423.18 3.39c-1.98-.49-3.96-.95-5.96-1.38v161.81h5.96ZM302.54 0c-1.99.37-3.98.75-5.96 1.16v162.66h5.96ZM132.44 458.29a26.711 26.711 0 0 0 1.93 9.98 25.54 25.54 0 0 0 1.75 3.56 27.096 27.096 0 0 0 3.02 4.18 26.76 26.76 0 0 0 20.12 9.11h391.31a26.82 26.82 0 0 0 0-53.64H159.26a26.846 26.846 0 0 0-26.82 26.81Z" fill="#e6e6e6"/><path fill="#e6e6e6" d="M521.268 169.782H196.502V149.92h324.766z"/><path d="M372.79 154.885H344.98a10.925 10.925 0 0 1 10.925-10.925h5.959a10.925 10.925 0 0 1 10.925 10.925Z" fill="#e6e6e6"/><path d="M0 473.61a289.004 289.004 0 0 0 28.12 28.95H710.7a289.004 289.004 0 0 0 28.12-28.95Z" fill="#3f3d56"/><path d="M185.16 376.8v102.56h71.85V376.8a3.448 3.448 0 0 0-2.43-3.3 3.175 3.175 0 0 0-1.03-.16h-64.92a3.463 3.463 0 0 0-3.47 3.46Zm28.04 35.24a7.67 7.67 0 0 1 15.34 0v11.9a7.67 7.67 0 0 1-15.34 0Z" fill="#2f2e41"/><path d="M184.94 476.08v9.89a1.946 1.946 0 0 0 1.93 1.94h68.43a1.94 1.94 0 0 0 1.93-1.94v-9.89ZM72.13 222.28v187.26a9.007 9.007 0 0 0 9 9h277.5a9.007 9.007 0 0 0 9-9V222.28a9.011 9.011 0 0 0-9-8.99H81.13a9.012 9.012 0 0 0-9 8.99Z" fill="#3f3d56"/><path d="M78.64 224.61v182.62a4.818 4.818 0 0 0 4.81 4.81h272.87a4.818 4.818 0 0 0 4.81-4.81V224.61a4.82 4.82 0 0 0-4.81-4.82H83.45a4.82 4.82 0 0 0-4.81 4.82Z" fill="#20c20e"/><path d="M134.28 490.24a2.948 2.948 0 0 0 2.32 1.11h162.34a2.987 2.987 0 0 0 2.92-3.6l-2.52-11.97a2.993 2.993 0 0 0-1.86-2.17 2.895 2.895 0 0 0-1.06-.2H139.11a2.894 2.894 0 0 0-1.06.2 2.992 2.992 0 0 0-1.86 2.17l-2.52 11.97a2.985 2.985 0 0 0 .61 2.49Z" fill="#2f2e41"/><rect x="520.857" y="637.431" width="5" height="3" rx=".488" transform="rotate(-180 408.062 557.998)" fill="#3f3d56"/><rect x="510.857" y="637.431" width="5" height="3" rx=".488" transform="rotate(-180 398.062 557.998)" fill="#3f3d56"/><rect x="500.857" y="637.431" width="5" height="3" rx=".488" transform="rotate(-180 388.062 557.998)" fill="#3f3d56"/><rect x="490.857" y="637.431" width="5" height="3" rx=".488" transform="rotate(-180 378.062 557.998)" fill="#3f3d56"/><rect x="480.857" y="637.431" width="5" height="3" rx=".488" transform="rotate(-180 368.062 557.998)" fill="#3f3d56"/><rect x="470.857" y="637.431" width="5" height="3" rx=".488" transform="rotate(-180 358.062 557.998)" fill="#3f3d56"/><rect x="460.857" y="637.431" width="5" height="3" rx=".488" transform="rotate(-180 348.062 557.998)" fill="#3f3d56"/><rect x="450.857" y="637.431" width="5" height="3" rx=".488" transform="rotate(-180 338.062 557.998)" fill="#3f3d56"/><rect x="440.857" y="637.431" width="5" height="3" rx=".488" transform="rotate(-180 328.062 557.998)" fill="#3f3d56"/><rect x="430.857" y="637.431" width="5" height="3" rx=".488" transform="rotate(-180 318.062 557.998)" fill="#3f3d56"/><rect x="420.857" y="637.431" width="5" height="3" rx=".488" transform="rotate(-180 308.062 557.998)" fill="#3f3d56"/><rect x="410.857" y="637.431" width="5" height="3" rx=".488" transform="rotate(-180 298.062 557.998)" fill="#3f3d56"/><rect x="400.857" y="637.431" width="5" height="3" rx=".488" transform="rotate(-180 288.062 557.998)" fill="#3f3d56"/><rect x="390.857" y="637.431" width="5" height="3" rx=".488" transform="rotate(-180 278.062 557.998)" fill="#3f3d56"/><rect x="380.857" y="637.431" width="5" height="3" rx=".488" transform="rotate(-180 268.062 557.998)" fill="#3f3d56"/><rect x="370.857" y="637.431" width="5" height="3" rx=".488" transform="rotate(-180 258.062 557.998)" fill="#3f3d56"/><rect x="520.975" y="642.431" width="5" height="3" rx=".488" transform="rotate(-180 408.18 562.998)" fill="#3f3d56"/><rect x="510.975" y="642.431" width="5" height="3" rx=".488" transform="rotate(-180 398.18 562.998)" fill="#3f3d56"/><rect x="500.975" y="642.431" width="5" height="3" rx=".488" transform="rotate(-180 388.18 562.998)" fill="#3f3d56"/><rect x="490.975" y="642.431" width="5" height="3" rx=".488" transform="rotate(-180 378.18 562.998)" fill="#3f3d56"/><rect x="480.975" y="642.431" width="5" height="3" rx=".488" transform="rotate(-180 368.18 562.998)" fill="#3f3d56"/><rect x="470.975" y="642.431" width="5" height="3" rx=".488" transform="rotate(-180 358.18 562.998)" fill="#3f3d56"/><rect x="460.975" y="642.431" width="5" height="3" rx=".488" transform="rotate(-180 348.18 562.998)" fill="#3f3d56"/><rect x="450.975" y="642.431" width="5" height="3" rx=".488" transform="rotate(-180 338.18 562.998)" fill="#3f3d56"/><rect x="440.975" y="642.431" width="5" height="3" rx=".488" transform="rotate(-180 328.18 562.998)" fill="#3f3d56"/><rect x="430.975" y="642.431" width="5" height="3" rx=".488" transform="rotate(-180 318.18 562.998)" fill="#3f3d56"/><rect x="420.975" y="642.431" width="5" height="3" rx=".488" transform="rotate(-180 308.18 562.998)" fill="#3f3d56"/><rect x="410.975" y="642.431" width="5" height="3" rx=".488" transform="rotate(-180 298.18 562.998)" fill="#3f3d56"/><rect x="400.975" y="642.431" width="5" height="3" rx=".488" transform="rotate(-180 288.18 562.998)" fill="#3f3d56"/><rect x="390.975" y="642.431" width="5" height="3" rx=".488" transform="rotate(-180 278.18 562.998)" fill="#3f3d56"/><rect x="380.975" y="642.431" width="5" height="3" rx=".488" transform="rotate(-180 268.18 562.998)" fill="#3f3d56"/><rect x="370.975" y="642.431" width="5" height="3" rx=".488" transform="rotate(-180 258.18 562.998)" fill="#3f3d56"/><rect x="437.975" y="648.431" width="40" height="3" rx=".488" transform="rotate(-180 342.68 568.998)" fill="#3f3d56"/><path d="M97.162 244.947h255.323a1.016 1.016 0 0 0 0-2.031H97.162a1.016 1.016 0 0 0 0 2.03Z" fill="#3f3d56"/><ellipse cx="335.105" cy="231.649" rx="5.95" ry="6.083" fill="#3f3d56"/><ellipse cx="314.549" cy="231.649" rx="5.95" ry="6.083" fill="#3f3d56"/><ellipse cx="293.993" cy="231.649" rx="5.95" ry="6.083" fill="#3f3d56"/><path d="M108.45 228.18a1.095 1.095 0 0 0 1.09 1.1h14.6a1.105 1.105 0 0 0 0-2.21h-14.6a1.103 1.103 0 0 0-1.09 1.11ZM108.45 232.33a1.095 1.095 0 0 0 1.09 1.1h14.6a1.105 1.105 0 0 0 0-2.21h-14.6a1.103 1.103 0 0 0-1.09 1.11ZM108.45 236.47a1.103 1.103 0 0 0 1.09 1.11h14.6a1.105 1.105 0 0 0 0-2.21h-14.6a1.095 1.095 0 0 0-1.09 1.1Z" fill="#3f3d56"/><rect x="104.836" y="268.543" width="11.006" height="5.76" rx="2.88" fill="#e6e6e6"/><rect x="164.836" y="268.543" width="11.006" height="5.76" rx="2.88" fill="#e6e6e6"/><rect x="181.836" y="268.543" width="11.006" height="5.76" rx="2.88" fill="#e6e6e6"/><rect x="121.156" y="268.063" width="38.366" height="5.76" rx="2.88" fill="#e6e6e6"/><rect x="201.156" y="268.063" width="38.366" height="5.76" rx="2.88" fill="#e6e6e6"/><rect x="120.836" y="281.543" width="11.006" height="5.76" rx="2.88" fill="#e6e6e6"/><rect x="180.836" y="281.543" width="11.006" height="5.76" rx="2.88" fill="#e6e6e6"/><rect x="197.836" y="281.543" width="11.006" height="5.76" rx="2.88" fill="#e6e6e6"/><rect x="137.156" y="281.063" width="38.366" height="5.76" rx="2.88" fill="#e6e6e6"/><rect x="217.156" y="281.063" width="38.366" height="5.76" rx="2.88" fill="#e6e6e6"/><rect x="136.836" y="294.543" width="11.006" height="5.76" rx="2.88" fill="#e6e6e6"/><rect x="196.836" y="294.543" width="11.006" height="5.76" rx="2.88" fill="#e6e6e6"/><rect x="213.836" y="294.543" width="11.006" height="5.76" rx="2.88" fill="#e6e6e6"/><rect x="153.156" y="294.063" width="38.366" height="5.76" rx="2.88" fill="#e6e6e6"/><rect x="233.156" y="294.063" width="38.366" height="5.76" rx="2.88" fill="#e6e6e6"/><rect x="152.836" y="307.543" width="11.006" height="5.76" rx="2.88" fill="#e6e6e6"/><rect x="212.836" y="307.543" width="11.006" height="5.76" rx="2.88" fill="#e6e6e6"/><rect x="229.836" y="307.543" width="11.006" height="5.76" rx="2.88" fill="#e6e6e6"/><rect x="169.156" y="307.063" width="38.366" height="5.76" rx="2.88" fill="#e6e6e6"/><rect x="164.836" y="359.237" width="11.006" height="5.76" rx="2.88" fill="#e6e6e6"/><rect x="181.836" y="359.237" width="11.006" height="5.76" rx="2.88" fill="#e6e6e6"/><rect x="201.156" y="359.717" width="38.366" height="5.76" rx="2.88" fill="#e6e6e6"/><rect x="104.836" y="359.237" width="11.006" height="5.76" rx="2.88" fill="#e6e6e6"/><rect x="121.156" y="359.717" width="38.366" height="5.76" rx="2.88" fill="#e6e6e6"/><rect x="120.836" y="346.237" width="11.006" height="5.76" rx="2.88" fill="#e6e6e6"/><rect x="180.836" y="346.237" width="11.006" height="5.76" rx="2.88" fill="#e6e6e6"/><rect x="197.836" y="346.237" width="11.006" height="5.76" rx="2.88" fill="#e6e6e6"/><rect x="137.156" y="346.717" width="38.366" height="5.76" rx="2.88" fill="#e6e6e6"/><rect x="136.836" y="333.237" width="11.006" height="5.76" rx="2.88" fill="#e6e6e6"/><rect x="196.836" y="333.237" width="11.006" height="5.76" rx="2.88" fill="#e6e6e6"/><rect x="213.836" y="333.237" width="11.006" height="5.76" rx="2.88" fill="#e6e6e6"/><rect x="153.156" y="333.717" width="38.366" height="5.76" rx="2.88" fill="#e6e6e6"/><rect x="152.836" y="320.237" width="11.006" height="5.76" rx="2.88" fill="#e6e6e6"/><rect x="212.836" y="320.237" width="11.006" height="5.76" rx="2.88" fill="#e6e6e6"/><rect x="229.836" y="320.237" width="11.006" height="5.76" rx="2.88" fill="#e6e6e6"/><rect x="169.156" y="320.717" width="38.366" height="5.76" rx="2.88" fill="#e6e6e6"/><path d="M94.1 547.04c.61.31 1.23.62 1.84.92 15.8 7.9 28.44 12.39 45.73 17.31 1.46-16.3 2.87-44.95 4.24-62.71.36-4.61.72-8.48 1.07-11.21a15.182 15.182 0 0 1 .88-4.25l-.06 4.25-.15 11.21-.87 64.11a288.588 288.588 0 0 0 65.84 9.49c1.16.03 2.3.05 3.4.07.39.01.77.02 1.15.02 1.25.01 2.49.02 3.74.02a289.271 289.271 0 0 0 69.54-8.43c-.49-16.13-.98-44.46-1.45-65.28-.1-4.07-.19-7.86-.29-11.21-.19-7.16-.39-12.32-.58-14.05a4.361 4.361 0 0 1 .39.97 97.154 97.154 0 0 1 1.89 13.08c.35 3.35.7 7.14 1.05 11.21 1.86 21.63 3.8 51.04 5.8 63.51a285.473 285.473 0 0 0 34.97-12.03q9-3.75 17.68-8.09c-1.1-7.2-2.25-15.27-3.43-23.64-.92-6.49-1.87-13.16-2.84-19.75-1.5-10.18-23.79-81.32-25.2-84.02-1.21-2.31-2.36-4.49-3.45-6.5-2.64-4.88-4.88-8.77-6.54-11.23a55.257 55.257 0 0 0-29.28-22.21l-.3-.08-.21.09-20.45-6.28-2.99-.92-2.01-.62-7.08-5.39-3.85-2.93-3.61-2.75-7.06-5.37-43.71 2.69-8.51 20.49-19.06 6.97-.33-.15-.29-.12-.3.08a55.306 55.306 0 0 0-29.28 22.21c-.94 1.41-2.08 3.27-3.37 5.52-1.1 1.91-2.3 4.09-3.6 6.5-1.85 3.43-3.87 7.3-6.01 11.49-.47.92-.95 1.86-1.43 2.81q-1.335 2.64-2.71 5.39c-2.13 4.25-4.33 8.69-6.53 13.2-1.91 3.91-3.84 11.95-5.74 22.18-1.57 8.5-3.13 18.52-4.64 28.95-1.98 13.52.13 29.71-1.66 42.15-.11.79-.23 1.56-.34 2.33Z" fill="#3f3d56"/><path opacity=".2" d="m303.59 473.566-8.497-32.792-7.503 28.296 16 4.496z"/><path d="M77.48 452.2c3.04 41.88-.11 60.32 16.67 94.85a286.16 286.16 0 0 0 47.52 18.22q2.55.72 5.11 1.4a288.588 288.588 0 0 0 65.84 9.49c1.16.03 2.3.05 3.4.07.39.01.77.02 1.15.02 1.25.01 2.49.02 3.74.02a289.271 289.271 0 0 0 69.54-8.43q3.42-.84 6.81-1.77a285.473 285.473 0 0 0 34.97-12.03q9-3.75 17.68-8.09c1.31-.66 2.62-1.32 3.91-2 6.63-11.66 10.4-25.84 10.48-42.88-4.59-29.36-276.68-74.19-286.82-48.87Z" fill="#2f2e41"/><path d="M77.488 459.372c-.155-2.593-.329-5.27-.531-8.06 10.14-25.32 282.23 19.51 286.82 48.87a110.45 110.45 0 0 1-.322 7.855C352.34 479.059 93.851 436.45 77.488 459.372Z" opacity=".2"/><path d="M15.83 473.186a6.416 6.416 0 0 0 6.182 4.33l26.492-.681a6.328 6.328 0 0 0 5.981-4.657l3.749-40.087a9.794 9.794 0 0 0 4.238.87 9.661 9.661 0 0 0-.485-19.316 8.184 8.184 0 0 0-1.736.18 6.548 6.548 0 0 0-4.874-2.102l-40.75 1.052a5.854 5.854 0 0 0-1.006.125 6.365 6.365 0 0 0-4.873 8.264Zm43.173-43.817 2.667-9.553a6.506 6.506 0 0 0 .02-3.374c.13 0 .244-.062.374-.062a6.91 6.91 0 0 1 .323 13.817 6.505 6.505 0 0 1-3.384-.828Z" fill="#2f2e41"/><path d="M13.621 412.9c.868 4.964 10.63 8.453 22.366 7.847 10.793-.497 19.617-4.287 21.234-8.779a6.025 6.025 0 0 0-1.844-.245l-40.75 1.052a5.854 5.854 0 0 0-1.006.125Z" fill="#3f3d56"/><path d="M38.138 451.158a.497.497 0 0 0 .15-.067l5.754-3.766a.5.5 0 0 0 0-.836l-5.98-3.916a.5.5 0 1 0-.547.835l5.34 3.499-5.113 3.348a.5.5 0 0 0 .396.903ZM29.051 451.577a.5.5 0 0 0 .126-.919l-5.303-3.04L29 443.81a.5.5 0 1 0-.596-.803l-5.739 4.263a.5.5 0 0 0 .05.835l5.965 3.42a.5.5 0 0 0 .371.05ZM37.566 454.458a.482.482 0 0 0 .137-.058.5.5 0 0 0 .167-.687l-8.155-13.409a.5.5 0 0 0-.855.52l8.156 13.41a.5.5 0 0 0 .55.224Z" fill="#20c20e"/><path fill="#3f3d56" d="M582.009 398.186h89v78h-89z"/><path d="M684.2 289.236a47.543 47.543 0 0 0 4.145 28.742c1.608 3.279 3.6 7.229 1.641 10.31a6.351 6.351 0 0 1-4.784 2.652 15.579 15.579 0 0 1-5.583-.723" fill="#ccc"/><ellipse cx="606.009" cy="256.686" rx="3" ry="2.5" fill="#3f3d56"/><ellipse cx="617.009" cy="257.686" rx="3" ry="2.5" fill="#3f3d56"/><ellipse cx="628.009" cy="262.686" rx="3" ry="2.5" fill="#3f3d56"/><ellipse cx="641.009" cy="259.686" rx="3" ry="2.5" fill="#3f3d56"/><path d="M367.934 309.569c14.57-4.045 30.799.29 42.058 10.22a43.888 43.888 0 0 1 12.879 20.148c2.875 9.258 3.35 19.025 3.651 28.65.333 10.641.622 21.284.932 31.926.296 10.148.33 20.342 1.008 30.473.568 8.5 1.928 17.325 6.478 24.698 4.217 6.835 10.881 11.45 18.411 13.994 7.633 2.579 15.861 3.179 23.868 3.126a184.222 184.222 0 0 0 27.827-2.203c17.488-2.801 34.76-9.947 45.44-24.689a40.91 40.91 0 0 0 7.923-23.028c.225-9.675-2.866-19.045-6.251-27.982-3.295-8.696-6.86-17.263-8.945-26.355a110.576 110.576 0 0 1-2.75-25.943 114.047 114.047 0 0 1 12.23-50.225 98.68 98.68 0 0 1 15.014-22.075c6.169-6.712 13.807-12.253 22.89-14.07a27.638 27.638 0 0 1 13.368.538c1.853.555 2.645-2.34.797-2.892-8.998-2.695-18.773-.646-26.751 4.03-7.845 4.598-14.044 11.496-19.304 18.81a116.17 116.17 0 0 0-16.43 99.955c5.34 17.489 16.951 35.694 11.963 54.62-4.367 16.568-19.492 27.826-35.117 32.912-9.48 3.085-19.418 4.39-29.331 5.066-8.378.57-16.87.933-25.223-.143-7.673-.99-15.565-3.335-21.513-8.485-6.521-5.645-9.502-13.758-10.799-22.083-1.467-9.42-1.252-19.133-1.529-28.638l-.945-32.443c-.534-18.323-.073-38.63-11.995-53.814a49.958 49.958 0 0 0-39.697-18.61 44.882 44.882 0 0 0-10.955 1.619 1.501 1.501 0 0 0 .798 2.893Z" fill="#3f3d56"/><path d="M154.966 290.59a57.57 57.57 0 0 0 114.038-15.91l-.114-.817a57.57 57.57 0 0 0-113.906 16.724Z" fill="#ffb6b6"/><path d="M205.718 338.194c-2.976-5.996-6.035-12.433-5.226-19.078s7.3-13.015 13.703-11.063c3.83 1.168 6.733 4.935 10.731 5.115 5.502.247 8.635-6.06 10.33-11.3l6.902-21.342c13.314 10.459-3.547-.506 12.944-4.335 6.47-1.502 13.002-4.41 16.782-9.871s3.729-13.914-1.495-18.017c-2.56-2.011-5.963-2.768-8.411-4.915a9.407 9.407 0 0 1 7.457-16.395l-17.567-2.136 5.2-9.48c-3.76 2.984-9.005 3.402-13.732 2.567s-9.182-2.765-13.808-4.047c-22.207-6.153-47.956 4.761-58.978 24.998a22.478 22.478 0 0 0-24.484 7.159c-4.68 5.982-5.932 13.947-6.089 21.541a93.368 93.368 0 0 0 9.663 43.219c2.07 4.171 4.516 8.263 8.033 11.314s43.272 19.955 47.86 19.158" fill="#2f2e41"/><path d="M621.009 298.686a29.657 29.657 0 0 1-.99 7.69v.01c-.01.05-.03.1-.04.15-2.02 7.43-6.84 12.65-12.47 12.65-5.6 0-10.4-5.18-12.45-12.55-.14-.51-.26-1.02-.37-1.55-.14-.59-.25-1.2-.34-1.83-.08-.5-.14-1.01-.19-1.53-.07-.72-.12-1.44-.13-2.19v-.01c-.02-.28-.02-.56-.02-.84v-.25l.01-.01a29.297 29.297 0 0 1 .25-3.79c.07-.53.15-1.04.25-1.55.12-.62.25-1.23.41-1.83.13-.53.28-1.04.44-1.55.22-.68.46-1.34.73-1.97.17-.41.35-.81.53-1.2 2.46-5.06 6.42-8.35 10.88-8.35 6.17 0 11.37 6.29 12.98 14.87.02.13.05.26.06.39v.01a29.58 29.58 0 0 1 .46 5.23Z" fill="#e6e6e6"/><path d="M596.759 286.975a.796.796 0 0 1-.66.76c.17-.41.35-.81.53-1.2a.84.84 0 0 1 .13.44Z" fill="#20c20e"/><rect x="599.004" y="286.065" width="10.354" height="1.555" rx=".777" fill="#20c20e"/><path d="M596.489 290.475a.781.781 0 0 1-.78.78h-.78c.13-.53.28-1.04.44-1.55h.34a.779.779 0 0 1 .78.77Z" fill="#20c20e"/><rect x="598.108" y="289.703" width="2.97" height="1.555" rx=".777" fill="#20c20e"/><rect x="603.323" y="289.573" width="10.354" height="1.555" rx=".777" fill="#20c20e"/><rect x="597.838" y="293.211" width="2.97" height="1.555" rx=".777" fill="#20c20e"/><rect x="602.426" y="293.211" width="2.97" height="1.555" rx=".777" fill="#20c20e"/><path d="M596.409 293.856a.781.781 0 0 1-.78.78h-1.36c.07-.53.15-1.04.25-1.55h1.11a.773.773 0 0 1 .78.77Z" fill="#20c20e"/><rect x="607.641" y="293.082" width="10.354" height="1.555" rx=".777" fill="#20c20e"/><path d="M596.759 298.975a.773.773 0 0 1-.78.77h-1.41a.79.79 0 0 1-.54-.21v-.01c-.02-.28-.02-.56-.02-.84v-.25l.01-.01a.77.77 0 0 1 .55-.23h1.41a.781.781 0 0 1 .78.78Z" fill="#ccc"/><rect x="599.004" y="298.065" width="10.354" height="1.555" rx=".777" fill="#ccc"/><path d="M596.489 302.475a.781.781 0 0 1-.78.78h-1.36c-.08-.5-.14-1.01-.19-1.53a.34.34 0 0 1 .14-.02h1.41a.779.779 0 0 1 .78.77Z" fill="#ccc"/><rect x="598.108" y="301.703" width="2.97" height="1.555" rx=".777" fill="#ccc"/><rect x="603.323" y="301.573" width="10.354" height="1.555" rx=".777" fill="#ccc"/><rect x="597.838" y="305.211" width="2.97" height="1.555" rx=".777" fill="#ccc"/><rect x="602.426" y="305.211" width="2.97" height="1.555" rx=".777" fill="#ccc"/><path d="M596.409 305.856a.781.781 0 0 1-.78.78h-.57c-.14-.51-.26-1.02-.37-1.55h.94a.773.773 0 0 1 .78.77Z" fill="#ccc"/><rect x="607.641" y="305.082" width="10.354" height="1.555" rx=".777" fill="#ccc"/></svg>